<svg width="64" height="64" viewBox="0 0 64 64" fill="none" xmlns="http://www.w3.org/2000/svg" aria-hidden="true" focusable="false">
  <!-- Transparent coffee cup icon -->
  <path d="M44 20H16v14a12 12 0 0012 12h4a12 12 0 0012-12V20z" stroke="#111" stroke-width="2" fill="none"/>
  <path d="M44 24h3a5 5 0 010 10h-3" stroke="#111" stroke-width="2" fill="none"/>
  <path d="M24 14c0 2-2 3-2 5s2 3 2 5M32 14c0 2-2 3-2 5s2 3 2 5M40 14c0 2-2 3-2 5s2 3 2 5" stroke="#555" stroke-width="2" stroke-linecap="round"/>
  <path d="M20 46h20" stroke="#111" stroke-width="2" stroke-linecap="round"/>
</svg>
